<?xml version="1.0" standalone="no"?>
<!DOCTYPE svg PUBLIC "-//W3C//DTD SVG 20010904//EN"
 "http://www.w3.org/TR/2001/REC-SVG-20010904/DTD/svg10.dtd">
<svg version="1.0" xmlns="http://www.w3.org/2000/svg"
 width="700.000000pt" height="700.000000pt" viewBox="0 0 700.000000 700.000000"
 preserveAspectRatio="xMidYMid meet">
<metadata>
Created by potrace 1.11, written by Peter Selinger 2001-2013
</metadata>
<g transform="translate(0.000000,700.000000) scale(0.100000,-0.100000)"
fill="#000000" stroke="none">
<path d="M0 3500 l0 -3500 3500 0 3500 0 0 3500 0 3500 -3500 0 -3500 0 0
-3500z m4267 2410 c179 -16 303 -73 428 -195 83 -82 133 -160 172 -270 l28
-80 3 -698 c3 -775 5 -752 -63 -895 -44 -92 -127 -181 -207 -221 l-59 -30 62
-31 c80 -41 147 -111 197 -209 74 -145 73 -132 70 -971 l-3 -745 -31 -85 c-71
-199 -233 -360 -434 -432 l-65 -23 -1132 -3 -1133 -2 0 2443 c0 1344 3 2447 7
2450 10 11 2044 8 2160 -3z"/>
<path d="M3157 4863 c-4 -3 -7 -190 -7 -415 l0 -408 350 0 350 0 0 415 0 415
-343 0 c-189 0 -347 -3 -350 -7z"/>
<path d="M3157 2993 c-4 -3 -7 -213 -7 -465 l0 -458 350 0 350 0 0 465 0 465
-343 0 c-189 0 -347 -3 -350 -7z"/>
</g>
</svg>
